:FULLY-SPECIFIED
:FORCE-ALL-JOINTS-BE-3DOF
:DEGREES
1019
root 1.14398 15.159 32.4481 4.89796 -3.44629 363.571
lfemur 8.42248 0.497751 5.73987
ltibia -2.15779e-014 0 0
lfoot -30.1461 -11.0063 0
ltoes -34.4198 0 0
rfemur -31.6361 -15.9646 -6.01108
rtibia 50.2591 0 0
rfoot -22.3994 4.73672 0
rtoes -42.5438 0 0
lowerback -1.46182 -0.167118 0.292606
upperback -0.536033 -0.210525 -5.93236
thorax 0.245038 -0.112516 -6.31979
lowerneck -7.18452 0.915525 6.24473
upperneck 1.58028 0.539585 3.4245
head 1.72517 0.400608 0.0386159
lclavicle -3.91918e-015 -1.63706e-014 0
lhumerus -58.6043 -46.3016 115.181
lradius 55.7421 0 0
lwrist 25.3233 0 0
lhand 37.217 24.9696 0
lfingers 7.12502 0 0
lthumb 60.051 38.6963 0
rclavicle -3.91918e-015 -1.63706e-014 0
rhumerus 2.8066 -23.8929 0.321445
rradius 27.7144 0 0
rwrist -10.3265 0 0
rhand -30.7606 -42.9541 0
rfingers 7.12502 0 0
rthumb -4.05195 -792.895 0
1020
root 1.14573 15.1597 32.4452 4.87435 -3.40465 363.558
lfemur 8.4134 0.451681 5.75019
ltibia -2.19209e-014 0 0
lfoot -30.1461 -10.9829 0
ltoes -34.4403 0 0
rfemur -31.5806 -15.9576 -6.01148
rtibia 50.2261 0 0
rfoot -22.387 4.70139 0
rtoes -42.5748 0 0
lowerback -1.45789 -0.160103 0.282265
upperback -0.526764 -0.200554 -5.92887
thorax 0.253685 -0.107112 -6.30995
lowerneck -7.20212 0.908111 6.25403
upperneck 1.61121 0.525992 3.42838
head 1.73815 0.395185 0.037963
lclavicle -4.29531e-015 -1.69318e-014 0
lhumerus -58.6087 -46.3492 115.2
lradius 55.7593 0 0
lwrist 25.3218 0 0
lhand 37.22 24.9645 0
lfingers 7.12502 0 0
lthumb 60.0535 38.6885 0
rclavicle -4.29531e-015 -1.69318e-014 0
rhumerus 2.77852 -23.8499 0.308898
rradius 27.6989 0 0
rwrist -10.2735 0 0
rhand -30.7363 -42.8826 0
rfingers 7.12502 0 0
rthumb -4.02846 -792.824 0
1021
root 1.14747 15.1604 32.4422 4.85074 -3.36302 363.544
lfemur 8.40432 0.40561 5.7605
ltibia -2.22639e-014 0 0
lfoot -30.146 -10.9595 0
ltoes -34.4609 0 0
rfemur -31.5251 -15.9507 -6.01189
rtibia 50.1932 0 0
rfoot -22.3746 4.66606 0
rtoes -42.6059 0 0
lowerback -1.45395 -0.153088 0.271925
upperback -0.517494 -0.190583 -5.92539
thorax 0.262331 -0.101709 -6.30012
lowerneck -7.21972 0.900696 6.26333
upperneck 1.64214 0.512399 3.43225
head 1.75113 0.389762 0.0373101
lclavicle -4.67144e-015 -1.74931e-014 0
lhumerus -58.6132 -46.3967 115.218
lradius 55.7764 0 0
lwrist 25.3203 0 0
lhand 37.2229 24.9594 0
lfingers 7.12502 0 0
lthumb 60.056 38.6808 0
rclavicle -4.67144e-015 -1.74931e-014 0
rhumerus 2.75044 -23.8069 0.29635
rradius 27.6834 0 0
rwrist -10.2205 0 0
rhand -30.712 -42.8112 0
rfingers 7.12502 0 0
rthumb -4.00498 -792.753 0
1022
root 1.14934 15.1605 32.4459 4.85299 -3.36606 363.538
lfemur 8.39847 0.410536 5.75295
ltibia 0.0393867 0 0
lfoot -30.1729 -10.9549 0
ltoes -34.4579 0 0
rfemur -31.5075 -15.9382 -6.01801
rtibia 50.1824 0 0
rfoot -22.3639 4.67957 0
rtoes -42.5707 0 0
lowerback -1.46514 -0.151735 0.258566
upperback -0.517648 -0.188164 -5.92459
thorax 0.268748 -0.100407 -6.29159
lowerneck -7.21741 0.897621 6.26536
upperneck 1.64012 0.508211 3.438
head 1.74999 0.387733 0.0386236
lclavicle -4.32844e-015 -1.68071e-014 0
lhumerus -58.6116 -46.4033 115.224
lradius 55.7746 0 0
lwrist 25.3247 0 0
lhand 37.2289 24.9647 0
lfingers 7.12502 0 0
lthumb 60.0611 38.6806 0
rclavicle -4.32844e-015 -1.68071e-014 0
rhumerus 2.73898 -23.7935 0.300333
rradius 27.6808 0 0
rwrist -10.2021 0 0
rhand -30.7123 -42.792 0
rfingers 7.12502 0 0
rthumb -4.00526 -792.734 0
1023
root 1.15121 15.1607 32.4496 4.85525 -3.36911 363.532
lfemur 8.39262 0.415463 5.7454
ltibia 0.0787733 0 0
lfoot -30.1997 -10.9504 0
ltoes -34.4549 0 0
rfemur -31.4899 -15.9257 -6.02412
rtibia 50.1717 0 0
rfoot -22.3533 4.69308 0
rtoes -42.5354 0 0
lowerback -1.47633 -0.150382 0.245207
upperback -0.517801 -0.185744 -5.92379
thorax 0.275165 -0.0991041 -6.28307
lowerneck -7.2151 0.894547 6.2674
upperneck 1.63811 0.504023 3.44375
head 1.74884 0.385703 0.0399371
lclavicle -3.98544e-015 -1.61211e-014 0
lhumerus -58.61 -46.4099 115.231
lradius 55.7728 0 0
lwrist 25.3291 0 0
lhand 37.2349 24.9699 0
lfingers 7.12502 0 0
lthumb 60.0662 38.6804 0
rclavicle -3.98544e-015 -1.61211e-014 0
rhumerus 2.72752 -23.7802 0.304315
rradius 27.6783 0 0
rwrist -10.1837 0 0
rhand -30.7126 -42.7727 0
rfingers 7.12502 0 0
rthumb -4.00554 -792.715 0
1024
root 1.15308 15.1608 32.4532 4.8575 -3.37215 363.526
lfemur 8.38676 0.420389 5.73784
ltibia 0.11816 0 0
lfoot -30.2266 -10.9458 0
ltoes -34.4519 0 0
rfemur -31.4723 -15.9131 -6.03024
rtibia 50.1609 0 0
rfoot -22.3426 4.70659 0
rtoes -42.5002 0 0
lowerback -1.48752 -0.149029 0.231849
upperback -0.517955 -0.183325 -5.923
thorax 0.281581 -0.0978017 -6.27454
lowerneck -7.21279 0.891472 6.26943
upperneck 1.63609 0.499836 3.4495
head 1.7477 0.383674 0.0412506
lclavicle -3.64244e-015 -1.54351e-014 0
lhumerus -58.6085 -46.4166 115.237
lradius 55.771 0 0
lwrist 25.3334 0 0
lhand 37.2409 24.9752 0
lfingers 7.12502 0 0
lthumb 60.0713 38.6802 0
rclavicle -3.64244e-015 -1.54351e-014 0
rhumerus 2.71606 -23.7668 0.308298
rradius 27.6757 0 0
rwrist -10.1653 0 0
rhand -30.7129 -42.7535 0
rfingers 7.12502 0 0
rthumb -4.00582 -792.695 0
1025
root 1.15494 15.161 32.4569 4.85976 -3.37519 363.521
lfemur 8.38091 0.425315 5.73029
ltibia 0.157547 0 0
lfoot -30.2535 -10.9413 0
ltoes -34.4489 0 0
rfemur -31.4546 -15.9006 -6.03635
rtibia 50.1502 0 0
rfoot -22.3319 4.7201 0
rtoes -42.465 0 0
lowerback -1.49871 -0.147676 0.21849
upperback -0.518109 -0.180905 -5.9222
thorax 0.287998 -0.0964993 -6.26602
lowerneck -7.21048 0.888398 6.27147
upperneck 1.63408 0.495648 3.45525
head 1.74656 0.381645 0.0425641
lclavicle -3.29944e-015 -1.47491e-014 0
lhumerus -58.6069 -46.4232 115.243
lradius 55.7692 0 0
lwrist 25.3378 0 0
lhand 37.2469 24.9805 0
lfingers 7.12502 0 0
lthumb 60.0765 38.6801 0
rclavicle -3.29944e-015 -1.47491e-014 0
rhumerus 2.7046 -23.7535 0.312281
rradius 27.6732 0 0
rwrist -10.147 0 0
rhand -30.7132 -42.7343 0
rfingers 7.12502 0 0
rthumb -4.0061 -792.676 0
1026
root 1.15681 15.1611 32.4606 4.86201 -3.37823 363.515
lfemur 8.37506 0.430241 5.72274
ltibia 0.196933 0 0
lfoot -30.2803 -10.9367 0
ltoes -34.4459 0 0
rfemur -31.437 -15.8881 -6.04247
rtibia 50.1394 0 0
rfoot -22.3213 4.73362 0
rtoes -42.4298 0 0
lowerback -1.5099 -0.146323 0.205131
upperback -0.518263 -0.178486 -5.9214
thorax 0.294415 -0.0951968 -6.25749
lowerneck -7.20817 0.885323 6.2735
upperneck 1.63206 0.49146 3.461
head 1.74541 0.379615 0.0438775
lclavicle -2.95644e-015 -1.40631e-014 0
lhumerus -58.6053 -46.4298 115.249
lradius 55.7674 0 0
lwrist 25.3422 0 0
lhand 37.2529 24.9857 0
lfingers 7.12502 0 0
lthumb 60.0816 38.6799 0
rclavicle -2.95644e-015 -1.40631e-014 0
rhumerus 2.69314 -23.7401 0.316264
rradius 27.6706 0 0
rwrist -10.1286 0 0
rhand -30.7134 -42.715 0
rfingers 7.12502 0 0
rthumb -4.00638 -792.657 0
1027
root 1.15868 15.1613 32.4643 4.86427 -3.38128 363.509
lfemur 8.36921 0.435168 5.71519
ltibia 0.23632 0 0
lfoot -30.3072 -10.9322 0
ltoes -34.4429 0 0
rfemur -31.4194 -15.8756 -6.04858
rtibia 50.1287 0 0
rfoot -22.3106 4.74713 0
rtoes -42.3945 0 0
lowerback -1.52109 -0.14497 0.191772
upperback -0.518416 -0.176066 -5.9206
thorax 0.300832 -0.0938944 -6.24897
lowerneck -7.20586 0.882248 6.27554
upperneck 1.63005 0.487272 3.46675
head 1.74427 0.377586 0.045191
lclavicle -2.61344e-015 -1.33771e-014 0
lhumerus -58.6037 -46.4364 115.256
lradius 55.7656 0 0
lwrist 25.3466 0 0
lhand 37.2589 24.991 0
lfingers 7.12502 0 0
lthumb 60.0867 38.6797 0
rclavicle -2.61344e-015 -1.33771e-014 0
rhumerus 2.68168 -23.7268 0.320246
rradius 27.6681 0 0
rwrist -10.1102 0 0
rhand -30.7137 -42.6958 0
rfingers 7.12502 0 0
rthumb -4.00666 -792.638 0
1028
root 1.16055 15.1614 32.4679 4.86652 -3.38432 363.503
lfemur 8.36335 0.440094 5.70763
ltibia 0.275707 0 0
lfoot -30.3341 -10.9276 0
ltoes -34.4399 0 0
rfemur -31.4018 -15.863 -6.0547
rtibia 50.1179 0 0
rfoot -22.3 4.76064 0
rtoes -42.3593 0 0
lowerback -1.53227 -0.143617 0.178413
upperback -0.51857 -0.173647 -5.9198
thorax 0.307248 -0.092592 -6.24044
lowerneck -7.20355 0.879174 6.27757
upperneck 1.62803 0.483084 3.4725
head 1.74313 0.375556 0.0465045
lclavicle -2.27043e-015 -1.26911e-014 0
lhumerus -58.6022 -46.4431 115.262
lradius 55.7638 0 0
lwrist 25.3509 0 0
lhand 37.2649 24.9963 0
lfingers 7.12502 0 0
lthumb 60.0918 38.6795 0
rclavicle -2.27043e-015 -1.26911e-014 0
rhumerus 2.67022 -23.7134 0.324229
rradius 27.6655 0 0
rwrist -10.0918 0 0
rhand -30.714 -42.6766 0
rfingers 7.12502 0 0
rthumb -4.00694 -792.618 0
1029
root 1.16242 15.1616 32.4716 4.86878 -3.38736 363.497
lfemur 8.3575 0.44502 5.70008
ltibia 0.315093 0 0
lfoot -30.3609 -10.9231 0
ltoes -34.4369 0 0
rfemur -31.3842 -15.8505 -6.06081
rtibia 50.1072 0 0
rfoot -22.2893 4.77415 0
rtoes -42.3241 0 0
lowerback -1.54346 -0.142264 0.165054
upperback -0.518724 -0.171227 -5.919
thorax 0.313665 -0.0912895 -6.23192
lowerneck -7.20124 0.876099 6.27961
upperneck 1.62601 0.478897 3.47825
head 1.74198 0.373527 0.047818
lclavicle -1.92743e-015 -1.20051e-014 0
lhumerus -58.6006 -46.4497 115.268
lradius 55.762 0 0
lwrist 25.3553 0 0
lhand 37.2709 25.0015 0
lfingers 7.12502 0 0
lthumb 60.0969 38.6793 0
rclavicle -1.92743e-015 -1.20051e-014 0
rhumerus 2.65876 -23.7 0.328212
rradius 27.663 0 0
rwrist -10.0734 0 0
rhand -30.7143 -42.6573 0
rfingers 7.12502 0 0
rthumb -4.00722 -792.599 0
